<svg width="20" height="21" viewBox="0 0 20 21" fill="none" xmlns="http://www.w3.org/2000/svg">
<g id="Action icon">
<path id="&#229;&#189;&#162;&#231;&#138;&#182;" d="M11.6667 14.6666C12.1269 14.6666 12.5 15.0397 12.5 15.5C12.5 15.9273 12.1783 16.2796 11.7639 16.3277L11.6667 16.3333H8.33333C7.8731 16.3333 7.5 15.9602 7.5 15.5C7.5 15.0726 7.8217 14.7204 8.23615 14.6722L8.33333 14.6666H11.6667ZM14.1667 9.66663C14.6269 9.66663 15 10.0397 15 10.5C15 10.9602 14.6269 11.3333 14.1667 11.3333H5.83333C5.3731 11.3333 5 10.9602 5 10.5C5 10.0397 5.3731 9.66663 5.83333 9.66663H14.1667ZM16.6667 4.66663C17.1269 4.66663 17.5 5.03973 17.5 5.49996C17.5 5.96019 17.1269 6.33329 16.6667 6.33329H3.33333C2.8731 6.33329 2.5 5.96019 2.5 5.49996C2.5 5.03973 2.8731 4.66663 3.33333 4.66663H16.6667Z" fill="#6F6F6F"/>
</g>
</svg>
